<?xml version="1.0" encoding="UTF-8"?><svg id="b" xmlns="http://www.w3.org/2000/svg" width="193.77" height="160.2" viewBox="0 0 193.77 160.2"><g id="c"><rect x=".5" y=".5" width="93.68" height="159.2" style="fill:#d1d0d6; stroke:#231f20; stroke-linecap:round; stroke-linejoin:round;"/><circle cx="75.48" cy="37.63" r="4.16" style="stroke:#231f20; stroke-linecap:round; stroke-linejoin:round;"/><rect x="66.56" y="36.89" width="72.77" height="122.82" style="fill:#d1d0d6; stroke:#231f20; stroke-linecap:round; stroke-linejoin:round;"/><rect x="108.11" y="3.08" width="85.16" height="156.62" style="fill:#d1d0d6; stroke:#231f20; stroke-linecap:round; stroke-linejoin:round;"/><circle cx="11.37" cy="12.66" r="4.16" style="stroke:#231f20; stroke-linecap:round; stroke-linejoin:round;"/><circle cx="25.69" cy="12.66" r="4.16" style="stroke:#231f20; stroke-linecap:round; stroke-linejoin:round;"/><circle cx="40.02" cy="12.66" r="4.16" style="stroke:#231f20; stroke-linecap:round; stroke-linejoin:round;"/><circle cx="54.34" cy="12.66" r="4.16" style="stroke:#231f20; stroke-linecap:round; stroke-linejoin:round;"/><circle cx="68.66" cy="12.66" r="4.16" style="stroke:#231f20; stroke-linecap:round; stroke-linejoin:round;"/><circle cx="18.69" cy="20.98" r="4.16" style="stroke:#231f20; stroke-linecap:round; stroke-linejoin:round;"/><circle cx="33.02" cy="20.98" r="4.16" style="stroke:#231f20; stroke-linecap:round; stroke-linejoin:round;"/><circle cx="47.34" cy="20.98" r="4.16" style="stroke:#231f20; stroke-linecap:round; stroke-linejoin:round;"/><circle cx="61.66" cy="20.98" r="4.16" style="stroke:#231f20; stroke-linecap:round; stroke-linejoin:round;"/><circle cx="75.98" cy="20.98" r="4.16" style="stroke:#231f20; stroke-linecap:round; stroke-linejoin:round;"/><circle cx="10.87" cy="29.31" r="4.16" style="stroke:#231f20; stroke-linecap:round; stroke-linejoin:round;"/><circle cx="25.19" cy="29.31" r="4.16" style="stroke:#231f20; stroke-linecap:round; stroke-linejoin:round;"/><circle cx="39.52" cy="29.31" r="4.16" style="stroke:#231f20; stroke-linecap:round; stroke-linejoin:round;"/><circle cx="53.84" cy="29.31" r="4.16" style="stroke:#231f20; stroke-linecap:round; stroke-linejoin:round;"/><circle cx="68.16" cy="29.31" r="4.16" style="stroke:#231f20; stroke-linecap:round; stroke-linejoin:round;"/><circle cx="18.19" cy="37.63" r="4.16" style="stroke:#231f20; stroke-linecap:round; stroke-linejoin:round;"/><circle cx="32.52" cy="37.63" r="4.16" style="stroke:#231f20; stroke-linecap:round; stroke-linejoin:round;"/><circle cx="46.84" cy="37.63" r="4.16" style="stroke:#231f20; stroke-linecap:round; stroke-linejoin:round;"/><circle cx="61.16" cy="37.63" r="4.16" style="stroke:#231f20; stroke-linecap:round; stroke-linejoin:round;"/><circle cx="122.05" cy="80.1" r="4.16" style="stroke:#231f20; stroke-linecap:round; stroke-linejoin:round;"/><circle cx="136.37" cy="80.1" r="4.16" style="stroke:#231f20; stroke-linecap:round; stroke-linejoin:round;"/><circle cx="150.69" cy="80.1" r="4.16" style="stroke:#231f20; stroke-linecap:round; stroke-linejoin:round;"/><circle cx="165.02" cy="80.1" r="4.16" style="stroke:#231f20; stroke-linecap:round; stroke-linejoin:round;"/><circle cx="179.34" cy="80.1" r="4.16" style="stroke:#231f20; stroke-linecap:round; stroke-linejoin:round;"/><circle cx="122.05" cy="67.15" r="4.16" style="stroke:#231f20; stroke-linecap:round; stroke-linejoin:round;"/><circle cx="136.37" cy="67.15" r="4.16" style="stroke:#231f20; stroke-linecap:round; stroke-linejoin:round;"/><circle cx="150.69" cy="67.15" r="4.16" style="stroke:#231f20; stroke-linecap:round; stroke-linejoin:round;"/><circle cx="165.02" cy="67.15" r="4.16" style="stroke:#231f20; stroke-linecap:round; stroke-linejoin:round;"/><circle cx="179.34" cy="67.15" r="4.16" style="stroke:#231f20; stroke-linecap:round; stroke-linejoin:round;"/><circle cx="122.05" cy="54.19" r="4.16" style="stroke:#231f20; stroke-linecap:round; stroke-linejoin:round;"/><circle cx="136.37" cy="54.19" r="4.16" style="stroke:#231f20; stroke-linecap:round; stroke-linejoin:round;"/><circle cx="150.69" cy="54.19" r="4.16" style="stroke:#231f20; stroke-linecap:round; stroke-linejoin:round;"/><circle cx="165.02" cy="54.19" r="4.16" style="stroke:#231f20; stroke-linecap:round; stroke-linejoin:round;"/><circle cx="179.34" cy="54.19" r="4.16" style="stroke:#231f20; stroke-linecap:round; stroke-linejoin:round;"/><circle cx="122.05" cy="93.06" r="4.16" style="stroke:#231f20; stroke-linecap:round; stroke-linejoin:round;"/><circle cx="136.37" cy="93.06" r="4.16" style="stroke:#231f20; stroke-linecap:round; stroke-linejoin:round;"/><circle cx="150.69" cy="93.06" r="4.16" style="stroke:#231f20; stroke-linecap:round; stroke-linejoin:round;"/><circle cx="165.02" cy="93.06" r="4.16" style="stroke:#231f20; stroke-linecap:round; stroke-linejoin:round;"/><circle cx="179.34" cy="93.06" r="4.16" style="stroke:#231f20; stroke-linecap:round; stroke-linejoin:round;"/><circle cx="122.05" cy="106.01" r="4.16" style="stroke:#231f20; stroke-linecap:round; stroke-linejoin:round;"/><circle cx="136.37" cy="106.01" r="4.16" style="stroke:#231f20; stroke-linecap:round; stroke-linejoin:round;"/><circle cx="150.69" cy="106.01" r="4.16" style="stroke:#231f20; stroke-linecap:round; stroke-linejoin:round;"/><circle cx="165.02" cy="106.01" r="4.16" style="stroke:#231f20; stroke-linecap:round; stroke-linejoin:round;"/><circle cx="179.34" cy="106.01" r="4.16" style="stroke:#231f20; stroke-linecap:round; stroke-linejoin:round;"/></g></svg>