<?xml version="1.0" encoding="UTF-8"?><svg id="b" xmlns="http://www.w3.org/2000/svg" width="10" height="38" viewBox="0 0 10 38"><g id="c"><rect x="1" y="5" width="8" height="28" style="fill:#fff; stroke-width:0px;"/><path d="m9,33s0,4-4,4-4-4-4-4" style="fill:#fff; stroke-width:0px;"/><path d="m9.5,33s0,4.5-4.5,4.5-4.5-4.5-4.5-4.5" style="fill:#fff; stroke:#231f20; stroke-miterlimit:10;"/><path d="m.5,5s0-4.5,4.5-4.5,4.5,4.5,4.5,4.5" style="fill:#fff; stroke:#231f20; stroke-miterlimit:10;"/><path d="m5,1C2.79,1,1,2.79,1,5h8c0-2.21-1.79-4-4-4Z" style="fill:none; stroke-width:0px;"/><rect x="1" y="5" width="8" height="28" style="fill:none; stroke-width:0px;"/><line x1="9.5" y1="33" x2="9.5" y2="5" style="fill:none; stroke:#231f20; stroke-miterlimit:10;"/><line x1=".5" y1="5" x2=".5" y2="33" style="fill:none; stroke:#231f20; stroke-miterlimit:10;"/><path d="m5,37c2.21,0,4-1.79,4-4H1c0,2.21,1.79,4,4,4Z" style="fill:none; stroke-width:0px;"/></g></svg>