<?xml version="1.0" encoding="UTF-8"?><svg id="b" xmlns="http://www.w3.org/2000/svg" width="76.55" height="41" viewBox="0 0 76.55 41"><g id="c"><path d="m44.27.5h30.77c.69,0,1.18.67.95,1.32-1.05,3.04-6.05,10.28-29.76,10.66-1.13.02-2.08.85-2.24,1.97-.79,5.56-3.05,21.33-3.6,25.19-.07.49-.49.86-.99.86h-2.26c-.5,0-.92-.37-.99-.86l-3.76-26.29c-.07-.49-.5-.85-.99-.86C6.78,12.33,1.63,4.92.56,1.83c-.23-.65.26-1.33.95-1.33h42.77Z" style="fill:#fff; stroke:#231f20; stroke-linecap:round; stroke-linejoin:round;"/></g></svg>